<svg xmlns="http://www.w3.org/2000/svg" viewBox="0 0 640 360" width="640" height="360">
  <defs>
    <linearGradient id="bg2" x1="0" y1="0" x2="1" y2="1">
      <stop offset="0" stop-color="#171b22"/><stop offset="1" stop-color="#0d0f12"/>
    </linearGradient>
    <radialGradient id="glow2" cx="0.78" cy="0.2" r="0.7">
      <stop offset="0" stop-color="#bff03d" stop-opacity="0.22"/><stop offset="1" stop-color="#bff03d" stop-opacity="0"/>
    </radialGradient>
  </defs>
  <rect width="640" height="360" fill="url(#bg2)"/>
  <rect width="640" height="360" fill="url(#glow2)"/>
  <g stroke="#ffffff" stroke-opacity="0.04" stroke-width="1">
    <line x1="0" y1="90" x2="640" y2="90"/><line x1="0" y1="180" x2="640" y2="180"/><line x1="0" y1="270" x2="640" y2="270"/>
    <line x1="160" y1="0" x2="160" y2="360"/><line x1="320" y1="0" x2="320" y2="360"/><line x1="480" y1="0" x2="480" y2="360"/>
  </g>
  <text x="48" y="120" font-family="Space Grotesk, Arial, sans-serif" font-size="120" font-weight="700" fill="#ffffff" fill-opacity="0.06">02</text>
  <g transform="translate(320 176) scale(4.2) translate(-12 -12)" fill="none" stroke="#bff03d" stroke-width="2" stroke-linecap="round" stroke-linejoin="round">
    <path d="M3 2v7c0 1.1.9 2 2 2a2 2 0 0 0 2-2V2 M5 2v20 M21 15V2a5 5 0 0 0-5 5v6c0 1.1.9 2 2 2h3zm0 0v7"/>
  </g>
  <rect x="40" y="296" width="138" height="34" rx="17" fill="#bff03d"/>
  <text x="58" y="319" font-family="Space Grotesk, Arial, sans-serif" font-size="17" font-weight="700" fill="#11160a">ХАРЧУВАННЯ</text>
  <text x="600" y="320" text-anchor="end" font-family="Manrope, Arial, sans-serif" font-size="15" fill="#99a2ad">CoachLab</text>
</svg>