<svg xmlns="http://www.w3.org/2000/svg" viewBox="0 0 640 360" width="640" height="360">
  <defs>
    <linearGradient id="bg3" x1="0" y1="0" x2="1" y2="1">
      <stop offset="0" stop-color="#171b22"/><stop offset="1" stop-color="#0d0f12"/>
    </linearGradient>
    <radialGradient id="glow3" cx="0.78" cy="0.2" r="0.7">
      <stop offset="0" stop-color="#bff03d" stop-opacity="0.22"/><stop offset="1" stop-color="#bff03d" stop-opacity="0"/>
    </radialGradient>
  </defs>
  <rect width="640" height="360" fill="url(#bg3)"/>
  <rect width="640" height="360" fill="url(#glow3)"/>
  <g stroke="#ffffff" stroke-opacity="0.04" stroke-width="1">
    <line x1="0" y1="90" x2="640" y2="90"/><line x1="0" y1="180" x2="640" y2="180"/><line x1="0" y1="270" x2="640" y2="270"/>
    <line x1="160" y1="0" x2="160" y2="360"/><line x1="320" y1="0" x2="320" y2="360"/><line x1="480" y1="0" x2="480" y2="360"/>
  </g>
  <text x="48" y="120" font-family="Space Grotesk, Arial, sans-serif" font-size="120" font-weight="700" fill="#ffffff" fill-opacity="0.06">03</text>
  <g transform="translate(320 176) scale(4.2) translate(-12 -12)" fill="none" stroke="#bff03d" stroke-width="2" stroke-linecap="round" stroke-linejoin="round">
    <path d="M12 2v4 M12 18v4 M4.93 4.93l2.83 2.83 M16.24 16.24l2.83 2.83 M2 12h4 M18 12h4 M4.93 19.07l2.83-2.83 M16.24 7.76l2.83-2.83"/>
  </g>
  <rect x="40" y="296" width="116" height="34" rx="17" fill="#bff03d"/>
  <text x="58" y="319" font-family="Space Grotesk, Arial, sans-serif" font-size="17" font-weight="700" fill="#11160a">РОЗМИНКА</text>
  <text x="600" y="320" text-anchor="end" font-family="Manrope, Arial, sans-serif" font-size="15" fill="#99a2ad">CoachLab</text>
</svg>